#!OML:ASF I:\Actors\actors\Patient Classification 1\Patient 1\Session 1\Subject1.ASF
:FULLY-SPECIFIED
:DEGREES
1267
root 0.60054 17.5223 9.90511 13.862 -10.5597 -9.75362
lowerback 0.529108 0.00586588 9.01919
upperback -10.0963 0.715973 1.89785
thorax -11.1278 -0.39108 -3.03928
lowerneck -11.7243 11.281 14.8282
upperneck 16.0738 17.0288 -20.4728
head 10.2403 7.20745 -7.24129
rclavicle -7.65321e-015 1.31198e-014
rhumerus 50.4222 44.0653 -7.94147
rradius 107.58
rwrist -4.57141
rhand -8.91328 -42.3899
rfingers 7.12502
rthumb 17.0299 288.337
lclavicle -7.65321e-015 1.31198e-014
lhumerus 0.839312 25.0004 75.784
lradius 106.592
lwrist 101.899
lhand -28.7539 -4.00841
lfingers 7.12502
lthumb -2.11404 25.9609
rfemur -6.60691 24.3779 23.6323
rtibia 2.0628
rfoot -12.6908 -18.6193
rtoes -3.31847
lfemur 9.1452 -47.043 -14.5745
ltibia -4.73578
lfoot -46.6102 57.6963
ltoes 23.4702
1268
root 0.602962 17.5231 9.91466 13.8318 -10.6127 -9.68211
lowerback 0.497381 -0.00197942 9.02613
upperback -10.1504 0.708015 1.93143
thorax -11.1732 -0.397194 -3.00478
lowerneck -11.7133 11.2904 14.9297
upperneck 16.0501 17.0332 -20.5249
head 10.2467 7.21339 -7.27676
rclavicle -3.0265e-014 9.93923e-015
rhumerus 50.3527 43.9464 -8.10747
rradius 107.595
rwrist -4.55647
rhand -8.92475 -42.2731
rfingers 7.12502
rthumb 17.0189 288.452
lclavicle -3.0265e-014 9.93923e-015
lhumerus 0.87841 25.1059 75.7248
lradius 106.663
lwrist 101.933
lhand -28.8053 -4.08901
lfingers 7.12502
lthumb -2.16371 25.8798
rfemur -6.55025 24.4775 23.5576
rtibia 2.0842
rfoot -12.7813 -18.6587
rtoes -2.92864
lfemur 9.31392 -47.1482 -14.8282
ltibia -4.74564
lfoot -46.7854 57.8122
ltoes 23.496
1269
root 0.606781 17.523 9.9253 13.8093 -10.6334 -9.63675
lowerback 0.430753 -0.0104126 9.10618
upperback -10.2005 0.699879 1.96894
thorax -11.1946 -0.408838 -3.00633
lowerneck -11.6234 11.3051 15.0083
upperneck 15.8887 17.0396 -20.6073
head 10.1913 7.22598 -7.31776
rclavicle 7.25564e-015 9.14409e-015
rhumerus 50.3494 43.8078 -8.28434
rradius 107.637
rwrist -4.43324
rhand -8.90994 -42.2145
rfingers 7.12502
rthumb 17.0331 288.512
lclavicle 7.25564e-015 9.14409e-015
lhumerus 0.886909 25.2286 75.66
lradius 106.759
lwrist 102.02
lhand -29.0124 -4.11454
lfingers 7.12502
lthumb -2.36365 25.8521
rfemur -6.47766 24.5147 23.5128
rtibia 2.07708
rfoot -12.8661 -18.6716
rtoes -2.50743
lfemur 9.38847 -47.0751 -14.9576
ltibia -4.75931
lfoot -46.6104 57.8169
ltoes 23.4631
1270
root 0.610227 17.5227 9.9331 13.8219 -10.6217 -9.66048
lowerback 0.371284 -0.00304694 9.24216
upperback -10.2475 0.719418 2.02895
thorax -11.215 -0.410689 -3.01707
lowerneck -11.8151 11.3187 14.9179
upperneck 15.8907 17.0382 -20.5339
head 10.2114 7.21343 -7.26667
rclavicle 6.16232e-015 -5.1684e-014
rhumerus 50.3529 43.58 -8.56428
rradius 107.706
rwrist -4.45034
rhand -8.79492 -42.2378
rfingers 7.12502
rthumb 17.1438 288.499
lclavicle 6.16232e-015 -5.1684e-014
lhumerus 1.002 25.317 75.7285
lradius 106.787
lwrist 102.016
lhand -29.1082 -4.24197
lfingers 7.12502
lthumb -2.45621 25.7236
rfemur -6.44837 24.5659 23.5397
rtibia 2.07559
rfoot -12.9182 -18.7251
rtoes -2.28269
lfemur 9.35787 -46.9022 -14.891
ltibia -4.78928
lfoot -46.3817 57.6937
ltoes 23.4688
1271
root 0.61227 17.5227 9.94048 13.8284 -10.6296 -9.68755
lowerback 0.317284 0.022343 9.33418
upperback -10.2965 0.762322 2.10057
thorax -11.237 -0.396529 -2.99317
lowerneck -12.3641 11.3548 14.6193
upperneck 16.1923 17.0682 -20.2113
head 10.3629 7.18963 -7.07575
rclavicle 3.42158e-014 -2.26615e-014
rhumerus 50.3068 43.3356 -8.94978
rradius 107.808
rwrist -4.35153
rhand -8.64697 -42.4875
rfingers 7.12502
rthumb 17.2862 288.261
lclavicle 3.42158e-014 -2.26615e-014
lhumerus 1.19935 25.3842 75.8867
lradius 106.748
lwrist 101.881
lhand -28.9574 -4.29946
lfingers 7.12502
lthumb -2.31057 25.6678
rfemur -6.4081 24.6733 23.5756
rtibia 2.06749
rfoot -12.974 -18.7965
rtoes -2.0836
lfemur 9.37729 -46.779 -14.8555
ltibia -4.83308
lfoot -46.356 57.5776
ltoes 23.5352
1272
root 0.613439 17.5226 9.94997 13.7914 -10.678 -9.65292
lowerback 0.241294 0.0475373 9.35037
upperback -10.3339 0.796093 2.16761
thorax -11.2313 -0.378627 -2.93168
lowerneck -12.7449 11.3804 14.413
upperneck 16.3683 17.0818 -19.9745
head 10.4535 7.17261 -6.93886
rclavicle 4.35587e-014 -1.19271e-015
rhumerus 50.2066 43.1141 -9.35048
rradius 107.953
rwrist -4.24997
rhand -8.6321 -42.8197
rfingers 7.12502
rthumb 17.3006 287.93
lclavicle 4.35587e-014 -1.19271e-015
lhumerus 1.36731 25.4462 75.9812
lradius 106.7
lwrist 101.809
lhand -28.7777 -4.40835
lfingers 7.12502
lthumb -2.13705 25.5607
rfemur -6.3215 24.767 23.5541
rtibia 2.05254
rfoot -13.0121 -18.8328
rtoes -1.84892
lfemur 9.5328 -46.8029 -15.0309
ltibia -4.84506
lfoot -46.5809 57.5358
ltoes 23.6937
1273
root 0.614929 17.5221 9.95991 13.7191 -10.7411 -9.55944
lowerback 0.192942 0.075124 9.32647
upperback -10.387 0.832896 2.20902
thorax -11.2591 -0.358816 -2.87596
lowerneck -12.7677 11.3612 14.3838
upperneck 16.2604 17.0176 -19.895
head 10.3944 7.15099 -6.91159
rclavicle 2.0773e-014 8.44835e-015
rhumerus 50.0567 42.9132 -9.77051
rradius 108.059
rwrist -4.3266
rhand -8.64408 -42.8613
rfingers 7.12502
rthumb 17.289 287.888
lclavicle 2.0773e-014 8.44835e-015
lhumerus 1.49458 25.4739 76.031
lradius 106.67
lwrist 101.805
lhand -28.6898 -4.53743
lfingers 7.12502
lthumb -2.05209 25.4324
rfemur -6.21068 24.7917 23.4688
rtibia 2.02349
rfoot -13.0115 -18.8239
rtoes -1.66604
lfemur 9.64072 -46.6526 -15.2299
ltibia -4.84293
lfoot -46.3437 57.4875
ltoes 23.5531
1274
root 0.617942 17.5207 9.97022 13.6609 -10.7746 -9.47756
lowerback 0.140514 0.112221 9.34593
upperback -10.4635 0.88423 2.22495
thorax -11.311 -0.339092 -2.8727
lowerneck -12.5826 11.3151 14.5397
upperneck 15.9886 16.9091 -19.9819
head 10.266 7.12553 -6.9898
rclavicle -2.79541e-014 4.17448e-014
rhumerus 49.8625 42.7427 -10.1978
rradius 108.153
rwrist -4.43604
rhand -8.6555 -42.8654
rfingers 7.12502
rthumb 17.278 287.883
lclavicle -2.79541e-014 4.17448e-014
lhumerus 1.6809 25.4857 76.1162
lradius 106.637
lwrist 101.754
lhand -28.7637 -4.40786
lfingers 7.12502
lthumb -2.12353 25.5613
rfemur -6.11324 24.6878 23.3885
rtibia 1.97815
rfoot -12.9489 -18.7386
rtoes -1.75551
lfemur 9.65232 -46.3685 -15.3318
ltibia -4.83234
lfoot -45.8681 57.3614
ltoes 23.373
1275
root 0.619729 17.5186 9.98117 13.6207 -10.7894 -9.45138
lowerback 0.0271918 0.136289 9.38798
upperback -10.5281 0.91329 2.27067
thorax -11.3155 -0.328342 -2.84732
lowerneck -12.4576 11.2817 14.7063
upperneck 15.7919 16.8288 -20.0836
head 10.1844 7.10572 -7.06991
rclavicle 1.39025e-014 -6.65929e-015
rhumerus 49.7364 42.5768 -10.5615
rradius 108.18
rwrist -4.52342
rhand -8.73902 -42.8519
rfingers 7.12502
rthumb 17.1976 287.889
lclavicle 1.39025e-014 -6.65929e-015
lhumerus 1.8713 25.5289 76.1725
lradius 106.627
lwrist 101.623
lhand -29.0029 -4.30096
lfingers 7.12502
lthumb -2.35454 25.6658
rfemur -6.04268 24.5879 23.3784
rtibia 1.98131
rfoot -12.8917 -18.681
rtoes -2.207
lfemur 9.79914 -46.4617 -15.5235
ltibia -4.78069
lfoot -46.2335 57.3145
ltoes 23.7001
